<?xml version="1.0" ?><svg viewBox="0 0 32 32" xmlns="http://www.w3.org/2000/svg"><g data-name="Layer 5" id="Layer_5"><path d="M8.26,15.73,16,8l7.74,7.74a.94.94,0,0,0,1.32,0,.94.94,0,0,0,0-1.32L16.66,6a.92.92,0,0,0-1.32,0l-8.4,8.4a.93.93,0,1,0,1.32,1.32Z"/><path d="M16,2A14,14,0,1,0,30,16,14,14,0,0,0,16,2Zm0,26.13A12.13,12.13,0,1,1,28.13,16,12.14,12.14,0,0,1,16,28.13Z"/><path d="M16.66,11.61a.92.92,0,0,0-1.32,0L6.94,20a.93.93,0,1,0,1.32,1.32L16,13.59l7.74,7.74a.94.94,0,0,0,1.32,0,.94.94,0,0,0,0-1.32Z"/></g></svg>